# xmcd
#
# Track frame offsets: 
#        150
#        59595
#        77212
#        105959
#        161466
#        203184
#        244329
#        280284
#        296207
#        307045
#
# Disc length: 4236 seconds
#
# Revision: 0
# Processed by: cddbd v1.5.2PL0 Copyright (c) Steve Scherf et al.
# Submitted via: ExactAudioCopy v0.95a5
#
DISCID=94108a0a
DTITLE=姚炳炎 - 姚炳炎古琴艺术-CD4
DYEAR=2017
DGENRE=Folk
TTITLE0=小胡茄
TTITLE1=古风操
TTITLE2=鹤鸣九皋
TTITLE3=流水
TTITLE4=昭君
TTITLE5=屈原问渡 合奏
TTITLE6=屈原问渡
TTITLE7=秋宵步月
TTITLE8=忘忧 "鸣鹤琴”
TTITLE9=忘忧 “戛玉琴”
EXTD=
EXTT0=
EXTT1=
EXTT2=
EXTT3=
EXTT4=
EXTT5=
EXTT6=
EXTT7=
EXTT8=
EXTT9=
PLAYORDER=
